<svg height="512pt" viewBox="0 -44 512.00066 512" width="512pt" xmlns="http://www.w3.org/2000/svg"><path d="m88.277344 70.621094h423.722656v317.792968c0 19.503907-15.808594 35.3125-35.308594 35.3125h-353.105468c-19.5 0-35.308594-15.8125-35.308594-35.3125zm0 0" fill="#ffeb99"/><path d="m476.691406 0h-353.105468c-19.5 0-35.308594 15.808594-35.308594 35.308594v35.3125h423.722656v-35.308594c0-19.503906-15.808594-35.3125-35.308594-35.3125zm0 0" fill="#ff7956"/><path d="m459.035156 167.722656h-194.207031l97.101563 61.796875zm0 0" fill="#ffa733"/><path d="m264.828125 167.722656v114.761719l79.898437-63.914063zm0 0" fill="#ffc477"/><path d="m361.929688 229.519531-17.203126-10.949219-79.898437 63.914063c0 4.875 3.953125 8.828125 8.828125 8.828125h176.550781c4.875 0 8.828125-3.953125 8.828125-8.828125l-79.898437-63.914063zm0 0" fill="#ffb655"/><path d="m379.136719 218.570312 79.898437 63.914063v-114.761719zm0 0" fill="#ffc477"/><path d="m123.585938 26.484375h17.65625v17.65625h-17.65625zm0 0" fill="#e6e7e8"/><path d="m158.894531 26.484375h17.65625v17.65625h-17.65625zm0 0" fill="#e6e7e8"/><path d="m194.207031 26.484375h17.65625v17.65625h-17.65625zm0 0" fill="#e6e7e8"/><g fill="#ff7956"><path d="m114.757812 167.722656h123.585938v17.65625h-123.585938zm0 0"/><path d="m61.792969 167.722656h35.308593v17.65625h-35.308593zm0 0"/><path d="m167.722656 220.691406h70.621094v17.65625h-70.621094zm0 0"/><path d="m132.414062 220.691406h17.65625v17.65625h-17.65625zm0 0"/><path d="m79.449219 220.691406h35.308593v17.65625h-35.308593zm0 0"/><path d="m8.828125 220.691406h35.308594v17.65625h-35.308594zm0 0"/><path d="m150.070312 273.65625h88.273438v17.65625h-88.273438zm0 0"/><path d="m97.101562 273.65625h35.3125v17.65625h-35.3125zm0 0"/><path d="m61.792969 273.65625h17.65625v17.65625h-17.65625zm0 0"/><path d="m0 273.65625h35.308594v17.65625h-35.308594zm0 0"/><path d="m26.484375 167.722656h17.652344v17.65625h-17.652344zm0 0"/></g></svg>