<svg height="512pt" viewBox="0 -25 512 512" width="512pt" xmlns="http://www.w3.org/2000/svg"><path d="m512 15.539062v364.429688c0 8.578125-6.960938 15.539062-15.539062 15.539062h-243.175782c-8.578125 0-15.539062-6.960937-15.539062-15.539062v-364.429688c0-8.578124 6.960937-15.539062 15.539062-15.539062h243.175782c8.578124 0 15.539062 6.960938 15.539062 15.539062zm0 0" fill="#4895ff"/><path d="m512 15.539062v364.429688c0 8.578125-6.960938 15.539062-15.539062 15.539062h-121.585938v-395.507812h121.585938c8.578124 0 15.539062 6.960938 15.539062 15.539062zm0 0" fill="#2682ff"/><path d="m316.453125 152.445312h35.367187c8.582032 0 15.535157-6.957031 15.535157-15.539062s-6.953125-15.539062-15.535157-15.539062h-35.367187c-7.195313 0-13.046875-5.851563-13.046875-13.046876v-26.25c0-7.195312 5.851562-13.046874 13.046875-13.046874h35.367187c8.582032 0 15.535157-6.957032 15.535157-15.539063s-6.953125-15.539063-15.535157-15.539063h-35.367187c-24.328125 0-44.121094 19.796876-44.121094 44.125v26.25c0 24.328126 19.792969 44.125 44.121094 44.125zm0 0" fill="#ffde55"/><path d="m467.902344 38.976562c-8.011719-3.074218-16.996094.933594-20.066406 8.949219l-17.472657 45.570313-17.464843-45.570313c-3.074219-8.015625-12.058594-12.019531-20.070313-8.949219-8.011719 3.074219-12.019531 12.058594-8.945313 20.070313l31.972657 83.421875c2.304687 6.007812 8.074219 9.976562 14.507812 9.976562 6.4375 0 12.207031-3.96875 14.507813-9.976562l31.976562-83.421875c3.074219-8.011719-.933594-16.996094-8.945312-20.070313zm0 0" fill="#ffcd00"/><path d="m469.738281 197.757812c0 8.578126-6.949219 15.539063-15.535156 15.539063h-155.757813c-8.585937 0-15.539062-6.960937-15.539062-15.539063 0-8.585937 6.953125-15.535156 15.539062-15.535156h155.757813c8.585937 0 15.535156 6.949219 15.535156 15.535156zm0 0" fill="#ffde55"/><path d="m469.738281 197.757812c0 8.578126-6.949219 15.539063-15.535156 15.539063h-79.324219v-31.074219h79.324219c8.585937 0 15.535156 6.949219 15.535156 15.535156zm0 0" fill="#ffcd00"/><path d="m486.894531 320.851562c0 15.058594-12.078125 27.09375-26.839843 27.394532-.1875.011718-.382813.011718-.570313.011718h-26.773437c14.6875 0 26.597656 11.910157 26.597656 26.601563v1.625c0 14.6875-11.910156 26.597656-26.597656 26.597656h-30.890626c14.679688.023438 26.570313 11.925781 26.570313 26.601563v1.625c0 14.6875-11.914063 26.601562-26.609375 26.601562h-120.902344c-39.867187-.734375-77.757812-2.703125-93.160156-5.429687-13.675781-2.410157-33.457031-10.988281-47.980469-17.929688-13.15625-6.277343-27.53125-9.539062-42.105469-9.539062h-86.894531v-151.363281h83.320313c14.492187 0 26.332031-11.746094 26.332031-26.351563 0-43.554687 35.308594-78.867187 78.867187-78.867187h38.488282v70.25h199.613281c15.132813 0 27.410156 12.199218 27.410156 27.335937 0 15.265625-12.390625 27.40625-27.410156 27.40625h22.125c15.132813 0 27.410156 12.273437 27.410156 27.429687zm0 0" fill="#fed2a4"/><path d="m432.710938 348.257812c14.6875 0 26.597656 11.910157 26.597656 26.601563v1.625c0 14.6875-11.910156 26.597656-26.597656 26.597656h-30.890626c14.679688.023438 26.570313 11.925781 26.570313 26.601563v1.625c0 14.6875-11.914063 26.601562-26.609375 26.601562h-120.902344c-39.867187-.734375-77.757812-2.703125-93.160156-5.429687-13.675781-2.410157-33.457031-10.988281-47.980469-17.929688-13.15625-6.277343-27.53125-9.539062-42.105469-9.539062h-86.894531v-76.753907zm0 0" fill="#ffbd86"/><g fill="#f6a96c"><path d="m464.765625 266.015625c0 15.128906-12.253906 27.414063-27.410156 27.414063h-142.777344c-7.570313 0-13.703125-6.136719-13.703125-13.707032 0-7.570312 6.136719-13.703125 13.703125-13.703125h170.1875zm0 0"/><path d="m486.894531 320.847656c0 15.140625-12.253906 27.414063-27.414062 27.414063h-164.902344c-7.570313 0-13.703125-6.136719-13.703125-13.707031 0-7.570313 6.136719-13.703126 13.703125-13.703126h192.316406zm0 0"/><path d="m459.308594 375.6875v.796875c0 14.6875-11.910156 26.597656-26.597656 26.597656h-30.890626c.113282 0 .230469 0 .34375.011719h-107.582031c-7.570312 0-13.703125-6.140625-13.703125-13.703125 0-3.792969 1.53125-7.210937 4.007813-9.695313 2.488281-2.476562 5.90625-4.007812 9.695312-4.007812zm0 0"/></g><path d="m86.636719 250.125v196.226562c0 8.832032-7.167969 16.011719-16.003907 16.011719h-70.632812v-228.253906h70.632812c8.835938 0 16.003907 7.167969 16.003907 16.015625zm0 0" fill="#ff6c6c"/><path d="m86.636719 348.238281v98.113281c0 8.832032-7.167969 16.011719-16.003907 16.011719h-70.632812v-114.125zm0 0" fill="#ff3939"/><path d="m428.390625 430.5v.808594c0 14.6875-11.914063 26.601562-26.609375 26.601562h-120.902344v-3.988281c0-12.9375 10.480469-23.421875 23.417969-23.421875zm0 0" fill="#f6a96c"/><path d="m237.75 206.660156v32.019532h-27.113281c-8.847657 0-16.007813-7.171876-16.007813-16.007813 0-8.839844 7.160156-16.011719 16.007813-16.011719zm0 0" fill="#f6a96c"/></svg>