<?xml version="1.0" encoding="iso-8859-1"?>
<!-- Generator: Adobe Illustrator 19.0.0, SVG Export Plug-In . SVG Version: 6.00 Build 0)  -->
<svg version="1.1" id="Capa_1" xmlns="http://www.w3.org/2000/svg" xmlns:xlink="http://www.w3.org/1999/xlink" x="0px" y="0px"
	 viewBox="0 0 512 512" style="enable-background:new 0 0 512 512;" xml:space="preserve">
<g>
	<polygon style="fill:#F5F5F5;" points="194.207,370.759 167.724,512 167.724,344.276 	"/>
	<polygon style="fill:#F5F5F5;" points="238.345,344.276 238.345,512 211.862,370.759 	"/>
</g>
<polygon style="fill:#00448F;" points="211.862,370.759 238.345,512 167.724,512 194.207,370.759 167.724,344.276 202.328,309.672 
	203.741,309.672 238.345,344.276 "/>
<path style="fill:#D3D3D3;" d="M282.483,193.854v54.025c0.018,2.692-0.185,5.376-0.618,8.033
	c-0.627,5.535-2.057,10.946-4.237,16.066c-9.684,22.863-32.106,37.711-56.938,37.694h-16.949l-0.706-0.706l-0.706,0.706h-16.949
	c-24.832,0.018-47.254-14.83-56.938-37.694c-2.18-5.12-3.61-10.531-4.237-16.066c-0.433-2.657-0.636-5.341-0.618-8.033v-54.025
	c0-14.627,11.855-26.483,26.483-26.483H256C270.627,167.371,282.483,179.226,282.483,193.854z"/>
<path style="fill:#FED8B5;" d="M123.586,158.897H97.103c-9.737-0.026-17.629-7.918-17.655-17.655
	c0.071-9.719,7.936-17.585,17.655-17.655h26.483V158.897z"/>
<polygon style="fill:#C4C4C4;" points="335.448,256 317.793,220.69 344.276,220.69 300.138,158.897 282.483,158.897 
	282.483,193.854 282.483,247.879 282.483,256 308.966,256 "/>
<g>
	<path style="fill:#FED8B5;" d="M124.204,255.912c-0.433-2.657-0.636-5.341-0.618-8.033V256L124.204,255.912z"/>
	<path style="fill:#FED8B5;" d="M281.865,255.912l0.618,0.088v-8.121C282.5,250.571,282.297,253.255,281.865,255.912z"/>
</g>
<polygon style="fill:#C4C4C4;" points="61.793,220.69 88.276,220.69 70.621,256 97.103,256 123.586,256 123.586,247.879 
	123.586,193.854 123.586,158.897 105.931,158.897 "/>
<g>
	<path style="fill:#FED8B5;" d="M282.483,123.586v-17.655l8.828-8.828v-35.31C291.31,27.666,263.645,0,229.517,0h-52.966
		c-34.127,0-61.793,27.666-61.793,61.793v44.138l8.828,8.828v79.095c0-14.627,11.855-26.483,26.483-26.483H256
		c14.627,0,26.483,11.855,26.483,26.483V123.586z M172.138,141.241c-7.309,0-13.241-5.932-13.241-13.241
		c0-7.309,5.932-13.241,13.241-13.241s13.241,5.932,13.241,13.241C185.379,135.309,179.447,141.241,172.138,141.241z
		 M233.931,141.241c-7.309,0-13.241-5.932-13.241-13.241c0-7.309,5.932-13.241,13.241-13.241s13.241,5.932,13.241,13.241
		C247.172,135.309,241.24,141.241,233.931,141.241z"/>
	<path style="fill:#FED8B5;" d="M326.621,141.241c-0.071,9.719-7.936,17.585-17.655,17.655h-26.483v-35.31h26.483
		C318.702,123.613,326.594,131.505,326.621,141.241z"/>
	<path style="fill:#FED8B5;" d="M418.516,268.447c3.354-3.266,5.235-7.759,5.208-12.447v-17.655h9.622
		c14.168-0.018,25.671,11.449,25.688,25.618c0,0.026,0,0.044,0,0.071v0.794c0,14.627-11.855,26.483-26.483,26.483h-26.483v17.655
		h-52.966v-44.138c0-14.627,11.855-26.483,26.483-26.483h8.828V256c0.026,9.737,7.918,17.629,17.655,17.655
		C410.756,273.682,415.25,271.801,418.516,268.447z"/>
</g>
<g>
	<path style="fill:#F5F5F5;" d="M406.069,308.966v150.069c0,29.255-23.711,52.966-52.966,52.966V308.966H406.069z"/>
	<path style="fill:#F5F5F5;" d="M317.793,512h-79.448V344.276l-34.604-34.604h16.949c24.832,0.018,47.254-14.83,56.938-37.694
		l4.855,1.677c39,0,70.621,31.62,70.621,70.621V512H317.793z"/>
	<path style="fill:#F5F5F5;" d="M128.441,271.978c9.684,22.863,32.106,37.711,56.938,37.694h16.949l-34.604,34.604V512H52.966
		V344.276c0-39,31.62-70.621,70.621-70.621L128.441,271.978z"/>
</g>
<g>
	<circle style="fill:#454545;" cx="233.931" cy="128" r="13.241"/>
	<circle style="fill:#454545;" cx="172.138" cy="128" r="13.241"/>
</g>
<path style="fill:#168DE2;" d="M414.897,176.552V256c0.018,2.383-0.971,4.661-2.737,6.268c-1.58,1.668-3.787,2.595-6.091,2.56
	c-4.873,0-8.828-3.955-8.828-8.828v-79.448H414.897z"/>
<rect x="397.241" y="141.241" style="fill:#F5F5F5;" width="17.655" height="17.655"/>
<path style="fill:#454545;" d="M423.724,123.586h-35.31c-4.873,0-8.828,3.955-8.828,8.828V256
	c0.044,14.61,11.873,26.439,26.483,26.483c14.627,0,26.483-11.855,26.483-26.483V132.414
	C432.552,127.541,428.597,123.586,423.724,123.586z M397.241,141.241h17.655v17.655h-17.655V141.241z M414.897,256
	c0.018,2.383-0.971,4.661-2.737,6.268c-1.58,1.668-3.787,2.595-6.091,2.56c-4.873,0-8.828-3.955-8.828-8.828v-79.448h17.655V256z"/>
<g>
	<rect x="397.241" y="52.966" style="fill:#168DE2;" width="17.655" height="35.31"/>
	<rect x="388.414" y="61.793" style="fill:#168DE2;" width="35.31" height="17.655"/>
</g>
<g>
	<rect x="79.448" y="353.103" style="fill:#D3D3D3;" width="17.655" height="158.897"/>
	<rect x="308.966" y="353.103" style="fill:#D3D3D3;" width="17.655" height="158.897"/>
</g>
<g>
	<rect x="167.724" y="26.483" style="fill:#EBB691;" width="70.621" height="17.655"/>
	<rect x="167.724" y="61.793" style="fill:#EBB691;" width="70.621" height="17.655"/>
</g>
<path style="fill:#B0B0B0;" d="M203.034,222.499h-0.071c-12.27,0.026-24.038-4.873-32.662-13.594l12.518-12.447
	c5.323,5.385,12.579,8.404,20.145,8.386l0,0c7.618,0.026,14.927-3.001,20.303-8.404l12.482,12.482
	C227.09,217.635,215.314,222.517,203.034,222.499z"/>
<g>
</g>
<g>
</g>
<g>
</g>
<g>
</g>
<g>
</g>
<g>
</g>
<g>
</g>
<g>
</g>
<g>
</g>
<g>
</g>
<g>
</g>
<g>
</g>
<g>
</g>
<g>
</g>
<g>
</g>
</svg>
