<svg height="464pt" viewBox="0 0 464 464" width="464pt" xmlns="http://www.w3.org/2000/svg"><path d="m112.207031 288.445312c2.449219 7.351563 28.6875 79.351563 119.792969 79.351563 88.503906 0 115.792969-67.945313 119.519531-78.5625-79.394531 11.25-159.996093 10.984375-239.3125-.789063zm0 0" fill="#e4544f"/><path d="m235.542969 367.628906c17.242187-.152344 34.300781-3.542968 50.289062-10l-60.191406-60.195312c-22.886719-.34375-44.273437-1.597656-63.527344-3.238282zm0 0" fill="#f98c96"/><path d="m238.769531 305.433594c-59.332031.191406-118.523437-5.792969-176.617187-17.855469l3.695312-15.566406c1.664063.398437 168.175782 39.078125 332.304688 0l3.695312 15.566406c-53.488281 12.238281-108.210937 18.230469-163.078125 17.855469zm0 0" fill="#5a6470"/><path d="m448 463.796875-64-48 16-280h32zm0 0" fill="#d9833b"/><path d="m168 143.796875c47.425781 23.710937 75.855469 64.285156 64 88l-176-88c11.855469-23.753906 64.574219-23.714844 112 0zm0 0" fill="#51a262"/><path d="m97.96875 41.972656c37.496094-37.488281 83.078125-52.6875 101.824219-33.945312l-135.792969 135.769531c-18.71875-18.746094-3.519531-64.335937 33.96875-101.824219zm0 0" fill="#69bc77"/><path d="m16 463.796875 64-48-16-280h-32zm0 0" fill="#d9833b"/><path d="m0 463.796875h464c-23.328125-56-109.488281-96-232-96s-200.648438 40-232 96zm0 0" fill="#ffd782"/><path d="m128 407.796875h16v16h-16zm0 0" fill="#d9833b"/><path d="m168 415.796875h16v16h-16zm0 0" fill="#d9833b"/><path d="m247.953125 391.796875h16.046875v16h-16.046875zm0 0" fill="#d9833b"/><path d="m8 111.796875 32 32c18.398438-18.402344 4-62.664063-32-99.753906zm0 0" fill="#51a262"/><path d="m320 71.796875c-52.152344-9.539063-107.199219 5.917969-112 32l191.632812 40c4.765626-26.082031-27.480468-62.464844-79.632812-72zm0 0" fill="#51a262"/><path d="m366.03125 41.972656c-37.496094-37.488281-83.078125-52.6875-101.824219-33.945312l135.792969 135.769531c18.71875-18.746094 3.519531-64.335937-33.96875-101.824219zm0 0" fill="#69bc77"/><path d="m456 111.796875-32 32c-18.398438-18.402344-4-62.664063 32-99.753906zm0 0" fill="#51a262"/><g fill="#ffd782"><path d="m392 311.796875h24v16h-24zm0 0"/><path d="m416 359.796875h32v16h-32zm0 0"/><path d="m416 239.796875h24v16h-24zm0 0"/><path d="m24 263.796875h24v16h-24zm0 0"/><path d="m48 311.796875h24v16h-24zm0 0"/><path d="m16 367.796875h32v16h-32zm0 0"/></g></svg>