<svg height="512pt" viewBox="0 -8 512 512" width="512pt" xmlns="http://www.w3.org/2000/svg"><path d="m333.628906 379.910156c-2.324218 0-4.613281-1.058594-6.105468-3.066406-2.507813-3.367188-1.808594-8.132812 1.5625-10.640625l79.101562-58.84375c3.371094-2.507813 8.132812-1.808594 10.636719 1.5625 2.507812 3.367187 1.808593 8.128906-1.558594 10.636719l-79.105469 58.847656c-1.363281 1.015625-2.953125 1.503906-4.53125 1.503906zm0 0" fill="#2e5968"/><path d="m374.566406 125.738281c0 21.074219 17.085938 38.160157 38.160156 38.160157 21.074219 0 38.15625-17.085938 38.15625-38.160157" fill="#2e5968"/><path d="m412.726562 209.328125c-4.203124 0-7.605468-3.40625-7.605468-7.605469v-37.824218c0-4.199219 3.402344-7.605469 7.605468-7.605469 4.199219 0 7.601563 3.40625 7.601563 7.605469v37.824218c0 4.199219-3.402344 7.605469-7.601563 7.605469zm0 0" fill="#2e5968"/><path d="m412.726562 260.855469c-18.398437 0-33.371093-14.96875-33.371093-33.367188 0-18.402343 14.96875-33.371093 33.371093-33.371093 18.398438 0 33.367188 14.96875 33.367188 33.371093 0 18.398438-14.96875 33.367188-33.367188 33.367188zm0-51.527344c-10.015624 0-18.164062 8.144531-18.164062 18.160156 0 10.011719 8.148438 18.160157 18.164062 18.160157 10.011719 0 18.160157-8.148438 18.160157-18.160157 0-10.015625-8.148438-18.160156-18.160157-18.160156zm0 0" fill="#ccc"/><path d="m412.726562 338.808594c-18.398437 0-33.371093-14.96875-33.371093-33.371094 0-4.199219 3.40625-7.601562 7.605469-7.601562 4.199218 0 7.601562 3.402343 7.601562 7.601562 0 10.015625 8.148438 18.160156 18.164062 18.160156 10.011719 0 18.160157-8.144531 18.160157-18.160156 0-10.011719-8.148438-18.160156-18.160157-18.160156-4.203124 0-7.605468-3.402344-7.605468-7.601563v-40.960937c0-4.199219 3.402344-7.601563 7.605468-7.601563 4.199219 0 7.601563 3.402344 7.601563 7.601563v34.230468c14.746094 3.449219 25.765625 16.710938 25.765625 32.492188 0 18.402344-14.96875 33.371094-33.367188 33.371094zm0 0" fill="#ccc"/><g fill="#f2a755"><path d="m498.414062 130.429688-63.730468-81.273438-63.734375 81.273438-11.964844-9.382813 69.714844-88.90625h11.964843l69.714844 88.90625zm0 0"/><path d="m77.519531 27.382812 11.8125 9.574219-75.824219 93.566407-11.816406-9.574219zm0 0"/><path d="m358.984375 130.429688-63.726563-81.273438-59.089843 75.089844-11.964844-9.382813 65.070313-82.722656h11.96875l69.710937 88.90625zm0 0"/><path d="m504.394531 133.34375h-252.328125c-4.199218 0-7.605468-3.402344-7.605468-7.605469 0-4.199219 3.40625-7.601562 7.605468-7.601562h244.726563v-73.699219h-481.585938v73.699219h42.785157c4.199218 0 7.605468 3.402343 7.605468 7.601562 0 4.203125-3.40625 7.605469-7.605468 7.605469h-50.386719c-4.199219 0-7.605469-3.402344-7.605469-7.605469v-88.902343c0-4.199219 3.40625-7.605469 7.605469-7.605469h496.789062c4.199219 0 7.605469 3.40625 7.605469 7.605469v88.902343c0 4.203125-3.40625 7.605469-7.605469 7.605469zm0 0"/><path d="m89.441406 420.371094c-2.15625 0-4.300781-.914063-5.804687-2.691406-2.714844-3.203126-2.320313-8 .886719-10.714844l94.40625-79.984375-94.160157-73.160157c-3.316406-2.574218-3.914062-7.351562-1.335937-10.667968 2.574218-3.316406 7.351562-3.914063 10.667968-1.339844l101.558594 78.90625c1.808594 1.40625 2.886719 3.550781 2.9375 5.84375.046875 2.289062-.9375 4.480469-2.6875 5.960938l-101.558594 86.042968c-1.429687 1.210938-3.175781 1.804688-4.910156 1.804688zm0 0"/><path d="m134.390625 79.375c-1.628906 0-3.269531-.519531-4.65625-1.597656l-44.964844-34.9375c-3.316406-2.578125-3.917969-7.355469-1.339843-10.671875 2.578124-3.316407 7.351562-3.914063 10.667968-1.339844l44.964844 34.9375c3.316406 2.578125 3.917969 7.355469 1.339844 10.671875-1.5 1.929688-3.742188 2.9375-6.011719 2.9375zm0 0"/></g><path d="m57.992188 16.828125v452.585937h164.449218v-452.585937c0-9.292969-7.535156-16.828125-16.828125-16.828125h-130.792969c-9.292968 0-16.828124 7.535156-16.828124 16.828125zm133 395.933594h-101.558594v-375.925781h101.558594zm0 0" fill="#f4d553"/><path d="m74.824219 0c-9.296875 0-16.832031 7.53125-16.832031 16.832031v432.765625h15.859374v-432.765625c0-9.300781 7.53125-16.832031 16.828126-16.832031zm0 0" fill="#f2a755"/><path d="m272.832031 470.421875v26.371094h-265.226562v-26.371094c0-11.496094 9.316406-20.824219 20.824219-20.824219h223.578124c11.496094 0 20.824219 9.328125 20.824219 20.824219zm0 0" fill="#1a414c"/><path d="m272.832031 470.421875v26.371094h-242.496093v-26.371094c0-11.496094 9.328124-20.824219 20.835937-20.824219h200.835937c11.496094 0 20.824219 9.328125 20.824219 20.824219zm0 0" fill="#2e5968"/><path d="m265.484375 247.816406h-176.046875v-176.046875h142.445312l33.601563 89.851563zm0 0" fill="#f7526e"/><path d="m119.851562 167.121094v-64.933594h90.933594l24.28125 64.933594zm0 0" fill="#c9ebf7"/><path d="m235.066406 174.726562h-115.214844c-4.199218 0-7.601562-3.40625-7.601562-7.605468v-64.933594c0-4.199219 3.402344-7.605469 7.601562-7.605469h90.933594c3.171875 0 6.011719 1.96875 7.121094 4.941407l24.285156 64.9375c.871094 2.332031.546875 4.945312-.875 6.996093-1.421875 2.046875-3.753906 3.269531-6.25 3.269531zm-107.609375-15.207031h96.648438l-18.597657-49.726562h-78.050781zm0 0" fill="#d1244a"/><path d="m491.820312 379.910156c-1.578124 0-3.167968-.488281-4.53125-1.503906l-79.105468-58.847656c-3.367188-2.507813-4.066406-7.269532-1.5625-10.636719 2.507812-3.371094 7.273437-4.070313 10.640625-1.5625l79.101562 58.84375c3.371094 2.507813 4.070313 7.273437 1.5625 10.640625-1.492187 2.007812-3.785156 3.066406-6.105469 3.066406zm0 0" fill="#2e5968"/><path d="m321.054688 362.183594h183.335937v107.015625h-183.335937zm0 0" fill="#f7526e"/><path d="m351.949219 449.71875c-4.199219 0-7.605469-3.402344-7.605469-7.601562v-52.847657c0-4.199219 3.40625-7.605469 7.605469-7.605469s7.601562 3.40625 7.601562 7.605469v52.847657c0 4.199218-3.402343 7.601562-7.601562 7.601562zm0 0" fill="#d1244a"/><path d="m473.5 449.71875c-4.199219 0-7.601562-3.402344-7.601562-7.601562v-52.847657c0-4.199219 3.402343-7.605469 7.601562-7.605469s7.605469 3.40625 7.605469 7.605469v52.847657c0 4.199218-3.40625 7.601562-7.605469 7.601562zm0 0" fill="#d1244a"/><path d="m432.984375 449.71875c-4.199219 0-7.605469-3.402344-7.605469-7.601562v-52.847657c0-4.199219 3.40625-7.605469 7.605469-7.605469s7.601563 3.40625 7.601563 7.605469v52.847657c0 4.199218-3.402344 7.601562-7.601563 7.601562zm0 0" fill="#d1244a"/><path d="m392.464844 449.71875c-4.199219 0-7.601563-3.402344-7.601563-7.601562v-52.847657c0-4.199219 3.402344-7.605469 7.601563-7.605469 4.199218 0 7.605468 3.40625 7.605468 7.605469v52.847657c0 4.199218-3.40625 7.601562-7.605468 7.601562zm0 0" fill="#d1244a"/></svg>